<mxfile host="app.diagrams.net" modified="2023-10-05T20:02:04.324Z" agent="Mozilla/5.0 (Windows NT 10.0; Win64; x64) AppleWebKit/537.36 (KHTML, like Gecko) Chrome/116.0.5845.2272 YaBrowser/23.9.0.2272 Yowser/2.5 Safari/537.36" etag="8ACyNjdTUAKcnkBMGF3Z" version="22.0.3" type="device">
  <diagram name="Page-1" id="c9db0220-8083-56f3-ca83-edcdcd058819">
    <mxGraphModel dx="1434" dy="783" grid="1" gridSize="10" guides="1" tooltips="1" connect="1" arrows="1" fold="1" page="1" pageScale="1.5" pageWidth="826" pageHeight="1169" background="#ffffff" math="0" shadow="0">
      <root>
        <mxCell id="0" style=";html=1;" />
        <mxCell id="1" style=";html=1;" parent="0" />
        <mxCell id="hrBW0rg_nr8JmwP7Cnk3-1" value="" style="rounded=0;whiteSpace=wrap;html=1;fillColor=#CCCCFF;strokeColor=#25253B;strokeWidth=2;fillStyle=cross-hatch;" parent="1" vertex="1">
          <mxGeometry x="10" y="130" width="1220" height="580" as="geometry" />
        </mxCell>
        <mxCell id="hrBW0rg_nr8JmwP7Cnk3-5" value="" style="rounded=0;whiteSpace=wrap;html=1;fillColor=#e1d5e7;strokeColor=#121212;" parent="1" vertex="1">
          <mxGeometry x="480" y="200" width="280" height="440" as="geometry" />
        </mxCell>
        <mxCell id="hrBW0rg_nr8JmwP7Cnk3-6" value="Login" style="text;strokeColor=none;fillColor=none;html=1;fontSize=24;fontStyle=1;verticalAlign=middle;align=center;" parent="1" vertex="1">
          <mxGeometry x="570" y="220" width="100" height="40" as="geometry" />
        </mxCell>
        <mxCell id="hrBW0rg_nr8JmwP7Cnk3-8" value="&lt;font color=&quot;#707070&quot; style=&quot;font-size: 9px;&quot;&gt;Login&lt;/font&gt;" style="text;html=1;strokeColor=none;fillColor=none;align=center;verticalAlign=middle;whiteSpace=wrap;rounded=0;" parent="1" vertex="1">
          <mxGeometry x="500" y="260" width="40" height="30" as="geometry" />
        </mxCell>
        <mxCell id="hrBW0rg_nr8JmwP7Cnk3-11" value="" style="shape=link;html=1;rounded=0;width=63;strokeColor=#A1A1A1;" parent="1" edge="1">
          <mxGeometry width="100" relative="1" as="geometry">
            <mxPoint x="508.5" y="331" as="sourcePoint" />
            <mxPoint x="731.5" y="330" as="targetPoint" />
          </mxGeometry>
        </mxCell>
        <mxCell id="hrBW0rg_nr8JmwP7Cnk3-12" value="&lt;font color=&quot;#707070&quot; size=&quot;1&quot;&gt;Password&lt;/font&gt;" style="text;html=1;strokeColor=none;fillColor=none;align=center;verticalAlign=middle;whiteSpace=wrap;rounded=0;" parent="1" vertex="1">
          <mxGeometry x="500" y="320" width="60" height="30" as="geometry" />
        </mxCell>
        <mxCell id="hrBW0rg_nr8JmwP7Cnk3-13" value="&lt;font color=&quot;#707070&quot; style=&quot;font-size: 9px;&quot;&gt;Forgot password?&lt;/font&gt;" style="text;html=1;strokeColor=none;fillColor=none;align=center;verticalAlign=middle;whiteSpace=wrap;rounded=0;" parent="1" vertex="1">
          <mxGeometry x="650" y="360" width="80" height="30" as="geometry" />
        </mxCell>
        <mxCell id="hrBW0rg_nr8JmwP7Cnk3-14" value="&lt;b&gt;&lt;font color=&quot;#ffffff&quot;&gt;LOGIN&lt;/font&gt;&lt;/b&gt;" style="rounded=1;whiteSpace=wrap;html=1;fillColor=#785467;strokeColor=none;" parent="1" vertex="1">
          <mxGeometry x="535" y="410" width="170" height="30" as="geometry" />
        </mxCell>
        <mxCell id="hrBW0rg_nr8JmwP7Cnk3-16" value="&lt;span style=&quot;font-size: 11px;&quot;&gt;Already have an account?&lt;/span&gt;" style="text;html=1;strokeColor=none;fillColor=none;align=center;verticalAlign=middle;whiteSpace=wrap;rounded=0;" parent="1" vertex="1">
          <mxGeometry x="560" y="570" width="135" height="30" as="geometry" />
        </mxCell>
        <mxCell id="hrBW0rg_nr8JmwP7Cnk3-17" value="&lt;b&gt;SIGN UP&lt;/b&gt;" style="text;html=1;strokeColor=none;fillColor=none;align=center;verticalAlign=middle;whiteSpace=wrap;rounded=0;" parent="1" vertex="1">
          <mxGeometry x="590" y="590" width="70" height="40" as="geometry" />
        </mxCell>
        <mxCell id="hrBW0rg_nr8JmwP7Cnk3-18" value="" style="rounded=0;whiteSpace=wrap;html=1;fillColor=#CCCCFF;strokeColor=none;strokeWidth=2;fillStyle=cross-hatch;" parent="1" vertex="1">
          <mxGeometry x="10" y="770" width="1220" height="580" as="geometry" />
        </mxCell>
        <mxCell id="hrBW0rg_nr8JmwP7Cnk3-21" value="" style="rounded=0;whiteSpace=wrap;html=1;strokeColor=none;fillColor=#E1D5E7;" parent="1" vertex="1">
          <mxGeometry x="480" y="840" width="280" height="440" as="geometry" />
        </mxCell>
        <mxCell id="hrBW0rg_nr8JmwP7Cnk3-23" value="Registration" style="text;strokeColor=none;fillColor=none;html=1;fontSize=24;fontStyle=1;verticalAlign=middle;align=center;" parent="1" vertex="1">
          <mxGeometry x="570" y="857" width="100" height="40" as="geometry" />
        </mxCell>
        <mxCell id="hrBW0rg_nr8JmwP7Cnk3-24" value="&lt;font color=&quot;#707070&quot; style=&quot;font-size: 13px;&quot;&gt;Username&lt;/font&gt;" style="text;html=1;strokeColor=none;fillColor=none;align=center;verticalAlign=middle;whiteSpace=wrap;rounded=0;fontSize=13;" parent="1" vertex="1">
          <mxGeometry x="504.25" y="897" width="60" height="30" as="geometry" />
        </mxCell>
        <mxCell id="hrBW0rg_nr8JmwP7Cnk3-25" value="" style="shape=link;html=1;rounded=0;width=63;strokeColor=#A1A1A1;" parent="1" edge="1">
          <mxGeometry width="100" relative="1" as="geometry">
            <mxPoint x="512.75" y="968" as="sourcePoint" />
            <mxPoint x="735.75" y="967" as="targetPoint" />
          </mxGeometry>
        </mxCell>
        <mxCell id="hrBW0rg_nr8JmwP7Cnk3-26" value="&lt;font color=&quot;#707070&quot; style=&quot;font-size: 13px;&quot;&gt;E-mail&lt;/font&gt;" style="text;html=1;strokeColor=none;fillColor=none;align=center;verticalAlign=middle;whiteSpace=wrap;rounded=0;fontSize=13;" parent="1" vertex="1">
          <mxGeometry x="504.25" y="957" width="45.75" height="30" as="geometry" />
        </mxCell>
        <mxCell id="hrBW0rg_nr8JmwP7Cnk3-28" value="&lt;font color=&quot;#707070&quot; style=&quot;font-size: 13px;&quot;&gt;Phone number&lt;/font&gt;" style="text;html=1;strokeColor=none;fillColor=none;align=center;verticalAlign=middle;whiteSpace=wrap;rounded=0;fontSize=13;" parent="1" vertex="1">
          <mxGeometry x="500" y="1010" width="105.75" height="30" as="geometry" />
        </mxCell>
        <mxCell id="hrBW0rg_nr8JmwP7Cnk3-29" value="" style="shape=link;html=1;rounded=0;width=63;strokeColor=#A1A1A1;" parent="1" edge="1">
          <mxGeometry width="100" relative="1" as="geometry">
            <mxPoint x="512.75" y="1081" as="sourcePoint" />
            <mxPoint x="735.75" y="1080" as="targetPoint" />
          </mxGeometry>
        </mxCell>
        <mxCell id="hrBW0rg_nr8JmwP7Cnk3-30" value="&lt;font color=&quot;#707070&quot; style=&quot;font-size: 13px;&quot;&gt;Avatar&lt;/font&gt;" style="text;html=1;strokeColor=none;fillColor=none;align=center;verticalAlign=middle;whiteSpace=wrap;rounded=0;fontSize=13;" parent="1" vertex="1">
          <mxGeometry x="510" y="1050" width="40" height="30" as="geometry" />
        </mxCell>
        <mxCell id="hrBW0rg_nr8JmwP7Cnk3-34" value="&lt;font color=&quot;#707070&quot; style=&quot;font-size: 13px;&quot;&gt;Login&lt;/font&gt;" style="text;html=1;strokeColor=none;fillColor=none;align=center;verticalAlign=middle;whiteSpace=wrap;rounded=0;fontSize=13;" parent="1" vertex="1">
          <mxGeometry x="504.25" y="1120" width="45.75" height="30" as="geometry" />
        </mxCell>
        <mxCell id="hrBW0rg_nr8JmwP7Cnk3-35" value="" style="shape=link;html=1;rounded=0;width=60;strokeColor=#A1A1A1;" parent="1" edge="1">
          <mxGeometry width="100" relative="1" as="geometry">
            <mxPoint x="512.75" y="1191" as="sourcePoint" />
            <mxPoint x="735.75" y="1190" as="targetPoint" />
          </mxGeometry>
        </mxCell>
        <mxCell id="hrBW0rg_nr8JmwP7Cnk3-36" value="&lt;font color=&quot;#707070&quot; style=&quot;font-size: 13px;&quot;&gt;Password&lt;/font&gt;" style="text;html=1;strokeColor=none;fillColor=none;align=center;verticalAlign=middle;whiteSpace=wrap;rounded=0;fontSize=13;" parent="1" vertex="1">
          <mxGeometry x="510" y="1180" width="54.25" height="30" as="geometry" />
        </mxCell>
        <mxCell id="hrBW0rg_nr8JmwP7Cnk3-39" value="Add file" style="rounded=0;whiteSpace=wrap;html=1;fillColor=#785467;strokeColor=none;" parent="1" vertex="1">
          <mxGeometry x="530" y="1080" width="106" height="18" as="geometry" />
        </mxCell>
        <mxCell id="hrBW0rg_nr8JmwP7Cnk3-40" value="" style="rounded=0;whiteSpace=wrap;html=1;fillColor=#CCCCFF;strokeColor=none;strokeWidth=2;fillStyle=cross-hatch;" parent="1" vertex="1">
          <mxGeometry x="10" y="1410" width="1220" height="810" as="geometry" />
        </mxCell>
        <mxCell id="hrBW0rg_nr8JmwP7Cnk3-41" value="" style="rounded=0;whiteSpace=wrap;html=1;strokeColor=none;fillColor=#E1D5E7;" parent="1" vertex="1">
          <mxGeometry x="25" y="1430" width="1190" height="50" as="geometry" />
        </mxCell>
        <mxCell id="hrBW0rg_nr8JmwP7Cnk3-42" value="" style="rounded=0;whiteSpace=wrap;html=1;strokeColor=none;fillColor=#E1D5E7;" parent="1" vertex="1">
          <mxGeometry x="20" y="2180" width="1190" height="20" as="geometry" />
        </mxCell>
        <mxCell id="hrBW0rg_nr8JmwP7Cnk3-43" value="&lt;font color=&quot;#ffffff&quot;&gt;&lt;b style=&quot;font-size: 20px;&quot;&gt;LOGO&lt;/b&gt;&lt;/font&gt;" style="text;html=1;strokeColor=none;fillColor=none;align=center;verticalAlign=middle;whiteSpace=wrap;rounded=0;fontFamily=Georgia;" parent="1" vertex="1">
          <mxGeometry x="610" y="1440" width="60" height="30" as="geometry" />
        </mxCell>
        <mxCell id="hrBW0rg_nr8JmwP7Cnk3-44" value="&lt;font color=&quot;#ffffff&quot;&gt;&lt;b&gt;EXIT&lt;/b&gt;&lt;/font&gt;" style="text;html=1;strokeColor=none;fillColor=none;align=center;verticalAlign=middle;whiteSpace=wrap;rounded=0;fontFamily=Georgia;" parent="1" vertex="1">
          <mxGeometry x="1140" y="1440" width="60" height="30" as="geometry" />
        </mxCell>
        <mxCell id="hrBW0rg_nr8JmwP7Cnk3-47" value="&lt;font color=&quot;#ffffff&quot;&gt;SEARCH&lt;/font&gt;" style="text;html=1;strokeColor=none;fillColor=none;align=center;verticalAlign=middle;whiteSpace=wrap;rounded=0;fontFamily=Georgia;" parent="1" vertex="1">
          <mxGeometry x="990" y="1440" width="60" height="30" as="geometry" />
        </mxCell>
        <mxCell id="hrBW0rg_nr8JmwP7Cnk3-48" value="&lt;font color=&quot;#ffffff&quot;&gt;CONTACTS&lt;/font&gt;" style="text;html=1;strokeColor=none;fillColor=none;align=center;verticalAlign=middle;whiteSpace=wrap;rounded=0;fontFamily=Georgia;" parent="1" vertex="1">
          <mxGeometry x="80" y="1440" width="60" height="30" as="geometry" />
        </mxCell>
        <mxCell id="hrBW0rg_nr8JmwP7Cnk3-49" value="&lt;b&gt;&lt;font color=&quot;#003300&quot; style=&quot;font-size: 30px;&quot;&gt;CONTENT&lt;/font&gt;&lt;/b&gt;" style="rounded=0;whiteSpace=wrap;html=1;strokeColor=none;gradientColor=none;fillStyle=auto;fillColor=#A69EAB;" parent="1" vertex="1">
          <mxGeometry x="300" y="1500" width="900" height="660" as="geometry" />
        </mxCell>
        <mxCell id="hrBW0rg_nr8JmwP7Cnk3-50" value="&lt;b&gt;&lt;font style=&quot;font-size: 21px;&quot;&gt;LEFT SIDEBAR&lt;/font&gt;&lt;/b&gt;" style="rounded=0;whiteSpace=wrap;html=1;strokeColor=none;fillColor=#E8E8E8;" parent="1" vertex="1">
          <mxGeometry x="40" y="1500" width="240" height="660" as="geometry" />
        </mxCell>
        <mxCell id="hrBW0rg_nr8JmwP7Cnk3-51" value="&lt;font face=&quot;Comic Sans MS&quot;&gt;HELP&lt;/font&gt;" style="text;html=1;strokeColor=none;fillColor=none;align=center;verticalAlign=middle;whiteSpace=wrap;rounded=0;" parent="1" vertex="1">
          <mxGeometry x="40" y="2175" width="60" height="30" as="geometry" />
        </mxCell>
        <mxCell id="hrBW0rg_nr8JmwP7Cnk3-52" value="&lt;font face=&quot;Comic Sans MS&quot;&gt;ADVERTISMENT&lt;/font&gt;" style="text;html=1;strokeColor=none;fillColor=none;align=center;verticalAlign=middle;whiteSpace=wrap;rounded=0;" parent="1" vertex="1">
          <mxGeometry x="590" y="2175" width="60" height="30" as="geometry" />
        </mxCell>
        <mxCell id="hrBW0rg_nr8JmwP7Cnk3-53" value="&lt;font face=&quot;Comic Sans MS&quot;&gt;MAP&lt;/font&gt;" style="text;html=1;strokeColor=none;fillColor=none;align=center;verticalAlign=middle;whiteSpace=wrap;rounded=0;" parent="1" vertex="1">
          <mxGeometry x="1130" y="2175" width="60" height="30" as="geometry" />
        </mxCell>
      </root>
    </mxGraphModel>
  </diagram>
</mxfile>
